<svg width="26" height="26" fill="none" xmlns="http://www.w3.org/2000/svg"><path d="M14.436 13L25.703 1.734A1.016 1.016 0 0024.265.297L13 11.563 1.734.297A1.016 1.016 0 00.297 1.734L11.564 13 .297 24.266a1.016 1.016 0 001.437 1.437L13 14.437l11.266 11.266a1.013 1.013 0 001.437 0 1.016 1.016 0 000-1.437L14.436 13z" fill="#363838" fill-rule="evenodd"/><path d="M25.703 1.734A1.016 1.016 0 0024.265.297L13 11.563 1.734.297A1.016 1.016 0 00.297 1.734L11.564 13 .297 24.266a1.016 1.016 0 001.437 1.437L13 14.437l11.266 11.266a1.013 1.013 0 001.437 0 1.016 1.016 0 000-1.437L14.436 13 25.703 1.734z"/></svg>