<svg width="14" height="14" fill="none" xmlns="http://www.w3.org/2000/svg"><path d="M7.016 3.39c-2 0-3.594 1.626-3.594 3.594 0 2 1.594 3.594 3.594 3.594a3.594 3.594 0 003.593-3.594c0-1.968-1.625-3.593-3.593-3.593zm0 5.938a2.34 2.34 0 01-2.344-2.344c0-1.28 1.031-2.312 2.344-2.312a2.307 2.307 0 012.312 2.312c0 1.313-1.031 2.344-2.312 2.344zm4.562-6.062a.84.84 0 00-.844-.844.84.84 0 00-.843.844.84.84 0 00.843.843.84.84 0 00.844-.843zm2.375.843c-.062-1.125-.312-2.125-1.125-2.937C12.016.359 11.016.109 9.891.047c-1.157-.063-4.625-.063-5.782 0-1.125.062-2.093.312-2.937 1.125C.359 1.984.109 2.984.047 4.109c-.063 1.157-.063 4.625 0 5.782.062 1.125.312 2.093 1.125 2.937.844.813 1.812 1.063 2.937 1.125 1.157.063 4.625.063 5.782 0 1.125-.062 2.125-.312 2.937-1.125.813-.844 1.063-1.812 1.125-2.937.063-1.157.063-4.625 0-5.782zm-1.5 7c-.219.625-.719 1.094-1.312 1.344-.938.375-3.125.281-4.125.281-1.032 0-3.22.094-4.125-.28a2.37 2.37 0 01-1.344-1.345c-.375-.906-.281-3.093-.281-4.125 0-1-.094-3.187.28-4.125a2.41 2.41 0 011.345-1.312c.906-.375 3.093-.281 4.125-.281 1 0 3.187-.094 4.125.28.593.22 1.062.72 1.312 1.313.375.938.281 3.125.281 4.125 0 1.032.094 3.22-.28 4.125z" fill="#707070" fill-rule="evenodd"/></svg>