<svg width="15.5" height="15.5" fill="none" xmlns="http://www.w3.org/2000/svg"><path d="M15.5 7.75A7.749 7.749 0 007.75 0 7.749 7.749 0 000 7.75a7.714 7.714 0 004.906 7.219c-.062-.594-.125-1.531.032-2.219.156-.594.906-3.844.906-3.844s-.219-.469-.219-1.156c0-1.063.625-1.875 1.406-1.875.657 0 .969.5.969 1.094 0 .656-.438 1.656-.656 2.593-.157.75.406 1.376 1.156 1.376 1.375 0 2.438-1.438 2.438-3.532 0-1.875-1.344-3.156-3.22-3.156-2.218 0-3.5 1.656-3.5 3.344 0 .687.25 1.406.563 1.781.063.063.063.156.063.219-.063.25-.219.781-.219.875-.031.156-.125.187-.281.125-.969-.469-1.563-1.875-1.563-3.031 0-2.438 1.781-4.688 5.125-4.688 2.688 0 4.782 1.938 4.782 4.5 0 2.656-1.688 4.813-4.032 4.813-.781 0-1.531-.407-1.781-.907 0 0-.375 1.5-.469 1.844-.187.688-.656 1.531-.968 2.031.718.25 1.5.344 2.312.344a7.749 7.749 0 007.75-7.75z" fill="#707070" fill-rule="evenodd"/></svg>