<svg width="10.000000" height="17.000000" viewBox="0 0 10 17" fill="none" xmlns="http://www.w3.org/2000/svg" xmlns:xlink="http://www.w3.org/1999/xlink">
	<desc>
			Created with Pixso.
	</desc>
	<defs/>
	<path id="Path" d="M0.470825 7.29199C0.555542 7.20599 0.6474 7.13342 0.74408 7.07031L7.21185 0.481934C7.84283 -0.160522 8.86652 -0.160828 9.4978 0.482239C10.1291 1.125 10.1291 2.16754 9.4978 2.81091L3.92767 8.48511L9.52655 14.189C10.1578 14.8317 10.1578 15.874 9.52655 16.5176C9.21075 16.8396 8.79681 17 8.38373 17C7.97064 17 7.5564 16.8396 7.24091 16.5176L0.74408 9.89874C0.6474 9.83563 0.554932 9.76306 0.470825 9.67706C0.148132 9.34839 -0.00750732 8.91541 0.000305176 8.4845C-0.00750732 8.05365 0.148132 7.62097 0.470825 7.29199Z" fill="#000000" fill-opacity="1.000000" fill-rule="nonzero"/>
</svg>
