<svg width="10.000000" height="17.000000" viewBox="0 0 10 17" fill="none" xmlns="http://www.w3.org/2000/svg" xmlns:xlink="http://www.w3.org/1999/xlink">
	<desc>
			Created with Pixso.
	</desc>
	<defs/>
	<path d="M9.52856 7.29242C9.44482 7.20642 9.35205 7.13385 9.25562 7.07074L2.78772 0.481934C2.15637 -0.160522 1.13342 -0.160828 0.501831 0.482239C-0.129395 1.125 -0.129395 2.16754 0.501831 2.81097L6.07239 8.48529L0.473633 14.1895C-0.157837 14.832 -0.157837 15.8748 0.473633 16.5182C0.789429 16.8393 1.20276 17 1.61621 17C2.02954 17 2.44373 16.8393 2.75867 16.5176L9.25562 9.89984C9.35205 9.83673 9.44446 9.76447 9.52856 9.67816C9.85193 9.34882 10.007 8.91644 9.99976 8.48529C10.0072 8.05383 9.85193 7.62085 9.52856 7.29242Z" fill="#000000" fill-opacity="1.000000" fill-rule="nonzero"/>
</svg>
