<svg width="26.000000" height="26.000000" viewBox="0 0 26 26" fill="none" xmlns="http://www.w3.org/2000/svg" xmlns:xlink="http://www.w3.org/1999/xlink">
	<desc>
			Created with Pixso.
	</desc>
	<defs/>
	<path d="M14.4364 13L25.7025 1.73389C26.0991 1.3374 26.0991 0.693848 25.7025 0.297363C25.3059 -0.0991211 24.6627 -0.0991211 24.2661 0.297363L13 11.5635L1.73389 0.297363C1.33716 -0.0991211 0.694092 -0.0991211 0.297485 0.297363C-0.0991211 0.694336 -0.0991211 1.3374 0.297485 1.73389L11.5636 13L0.297485 24.2661C-0.0991211 24.6631 -0.0991211 25.3062 0.297485 25.7026C0.49585 25.9009 0.755737 26 1.01562 26C1.27563 26 1.53552 25.9009 1.73389 25.7026L13 14.4365L24.2661 25.7026C24.4644 25.9009 24.7244 26 24.9844 26C25.2443 26 25.5042 25.9009 25.7025 25.7026C26.0991 25.3062 26.0991 24.6626 25.7025 24.2661L14.4364 13Z" fill="#363838" fill-opacity="1.000000" fill-rule="evenodd"/>
	<path d="M25.7025 1.73389C26.0991 1.3374 26.0991 0.693848 25.7025 0.297363C25.3059 -0.0991211 24.6627 -0.0991211 24.2661 0.297363L13 11.5635L1.73389 0.297363C1.33716 -0.0991211 0.694092 -0.0991211 0.297485 0.297363C-0.0991211 0.694336 -0.0991211 1.3374 0.297485 1.73389L11.5636 13L0.297485 24.2661C-0.0991211 24.6631 -0.0991211 25.3062 0.297485 25.7026C0.49585 25.9009 0.755737 26 1.01562 26C1.27563 26 1.53552 25.9009 1.73389 25.7026L13 14.4365L24.2661 25.7026C24.4644 25.9009 24.7244 26 24.9844 26C25.2443 26 25.5042 25.9009 25.7025 25.7026C26.0991 25.3062 26.0991 24.6626 25.7025 24.2661L14.4364 13L25.7025 1.73389Z" stroke="#979797" stroke-opacity="0" stroke-width="0.000000"/>
</svg>
